# xmcd
#
# Track frame offsets: 
#        150
#        9687
#        22875
#        33825
#        44240
#        56810
#        68325
#        79012
#        87687
#        98217
#        109095
#        123142
#        135550
#        144955
#        154865
#        162225
#
# Disc length: 2294 seconds
#
# Revision: 0
# Processed by: cddbd v1.5.2PL0 Copyright (c) Steve Scherf et al.
# Submitted via: ExactAudioCopy v0.95a5
#
DISCID=cc08f410
DTITLE=Various Artist - Live from the Grand Old Opry, Disc 1
DYEAR=2004
DGENRE=Country
TTITLE0=Marty Robbins - Singing The Blues
TTITLE1=Hank Snow - I'm Here To Get My baby Out Of Jail
TTITLE2=Ernest Tubb - Tommorrow Never Comes
TTITLE3=Hank Williams - Why Don't You Love Me
TTITLE4=Porter Wagoner - A Satisfied Mind
TTITLE5=Roy Acuff - The Waltz Of The Wind
TTITLE6=Jean Shepard - Have Heart, Will Love
TTITLE7=Red Foley - Careless Love
TTITLE8=Faron Young - I Hear You Talkin'
TTITLE9=Hank Snow - Chasin' A Rainbow
TTITLE10=Ray Price - Kissing Your Picture (Is So Cold)
TTITLE11=Little Jimmy Dickens - Take An Old Cold Tater (And Wait)
TTITLE12=Hawkshaw Hawkins - I've Got It Again
TTITLE13=Flatt and Scruggs - Rollin' In My Sweet Baby's Arms
TTITLE14=Tex Ritter - You Two Timed Me One Time Too Often
TTITLE15=Cowboy Copas - Those Gone And Left Me Blues
EXTD=
EXTT0=
EXTT1=
EXTT2=
EXTT3=
EXTT4=
EXTT5=
EXTT6=
EXTT7=
EXTT8=
EXTT9=
EXTT10=
EXTT11=
EXTT12=
EXTT13=
EXTT14=
EXTT15=
PLAYORDER=
